<svg xmlns="http://www.w3.org/2000/svg" width="1472" height="850" viewBox="0 0 1472 850" font-family="Helvetica">
<rect width="1472" height="850" fill="#FFFFFF"/>
<text x="26" y="52" font-family="Helvetica" font-size="27" font-weight="600" fill="#1F3B63">How each option is costed and compared</text>
<path d="M278.0,291.0 L298.0,291.0 L298.0,133.0 L307.0,133.0" fill="none" stroke="#8A9BB0" stroke-width="1.8" stroke-linejoin="round"/><polygon points="318.0,133.0 307.0,137.6 307.0,128.4" fill="#8A9BB0"/>
<path d="M152.0,508.0 L152.0,370.0 L444.0,370.0 L444.0,243.0" fill="none" stroke="#8A9BB0" stroke-width="1.8" stroke-linejoin="round"/><polygon points="444.0,232.0 448.6,243.0 439.4,243.0" fill="#8A9BB0"/>
<path d="M152.0,508.0 L152.0,449.0 L444.0,449.0 L444.0,401.0" fill="none" stroke="#8A9BB0" stroke-width="1.8" stroke-linejoin="round"/><polygon points="444.0,390.0 448.6,401.0 439.4,401.0" fill="#8A9BB0"/>
<path d="M570.0,133.0 L599.0,133.0" fill="none" stroke="#8A9BB0" stroke-width="1.8" stroke-linejoin="round"/><polygon points="610.0,133.0 599.0,137.6 599.0,128.4" fill="#8A9BB0"/>
<path d="M862.0,133.0 L891.0,133.0" fill="none" stroke="#8A9BB0" stroke-width="1.8" stroke-linejoin="round"/><polygon points="902.0,133.0 891.0,137.6 891.0,128.4" fill="#8A9BB0"/>
<path d="M1154.0,133.0 L1183.0,133.0" fill="none" stroke="#8A9BB0" stroke-width="1.8" stroke-linejoin="round"/><polygon points="1194.0,133.0 1183.0,137.6 1183.0,128.4" fill="#8A9BB0"/>
<path d="M570.0,291.0 L599.0,291.0" fill="none" stroke="#8A9BB0" stroke-width="1.8" stroke-linejoin="round"/><polygon points="610.0,291.0 599.0,295.6 599.0,286.4" fill="#8A9BB0"/>
<path d="M862.0,291.0 L891.0,291.0" fill="none" stroke="#8A9BB0" stroke-width="1.8" stroke-linejoin="round"/><polygon points="902.0,291.0 891.0,295.6 891.0,286.4" fill="#8A9BB0"/>
<path d="M1154.0,291.0 L1183.0,291.0" fill="none" stroke="#8A9BB0" stroke-width="1.8" stroke-linejoin="round"/><polygon points="1194.0,291.0 1183.0,295.6 1183.0,286.4" fill="#8A9BB0"/>
<path d="M570.0,449.0 L599.0,449.0" fill="none" stroke="#8A9BB0" stroke-width="1.8" stroke-linejoin="round"/><polygon points="610.0,449.0 599.0,453.6 599.0,444.4" fill="#8A9BB0"/>
<path d="M862.0,449.0 L891.0,449.0" fill="none" stroke="#8A9BB0" stroke-width="1.8" stroke-linejoin="round"/><polygon points="902.0,449.0 891.0,453.6 891.0,444.4" fill="#8A9BB0"/>
<path d="M1154.0,449.0 L1183.0,449.0" fill="none" stroke="#8A9BB0" stroke-width="1.8" stroke-linejoin="round"/><polygon points="1194.0,449.0 1183.0,453.6 1183.0,444.4" fill="#8A9BB0"/>
<path d="M1320.0,192.0 L1320.0,370.0 L736.0,370.0 L736.0,537.0" fill="none" stroke="#8A9BB0" stroke-width="1.8" stroke-linejoin="round"/><polygon points="736.0,548.0 731.4,537.0 740.6,537.0" fill="#8A9BB0"/>
<path d="M1320.0,350.0 L1320.0,449.0 L736.0,449.0 L736.0,537.0" fill="none" stroke="#8A9BB0" stroke-width="1.8" stroke-linejoin="round"/><polygon points="736.0,548.0 731.4,537.0 740.6,537.0" fill="#8A9BB0"/>
<path d="M1320.0,508.0 L1320.0,528.0 L736.0,528.0 L736.0,537.0" fill="none" stroke="#8A9BB0" stroke-width="1.8" stroke-linejoin="round"/><polygon points="736.0,548.0 731.4,537.0 740.6,537.0" fill="#8A9BB0"/>
<path d="M736.0,666.0 L736.0,686.0 L152.0,686.0 L152.0,695.0" fill="none" stroke="#8A9BB0" stroke-width="1.8" stroke-linejoin="round"/><polygon points="152.0,706.0 147.4,695.0 156.6,695.0" fill="#8A9BB0"/>
<path d="M278.0,765.0 L307.0,765.0" fill="none" stroke="#8A9BB0" stroke-width="1.8" stroke-linejoin="round"/><polygon points="318.0,765.0 307.0,769.6 307.0,760.4" fill="#8A9BB0"/>
<path d="M570.0,765.0 L599.0,765.0" fill="none" stroke="#8A9BB0" stroke-width="1.8" stroke-linejoin="round"/><polygon points="610.0,765.0 599.0,769.6 599.0,760.4" fill="#8A9BB0"/>
<path d="M862.0,765.0 L891.0,765.0" fill="none" stroke="#8A9BB0" stroke-width="1.8" stroke-linejoin="round"/><polygon points="902.0,765.0 891.0,769.6 891.0,760.4" fill="#8A9BB0"/>
<path d="M1154.0,765.0 L1183.0,765.0" fill="none" stroke="#8A9BB0" stroke-width="1.8" stroke-linejoin="round"/><polygon points="1194.0,765.0 1183.0,769.6 1183.0,760.4" fill="#8A9BB0"/>
<rect x="26" y="74" width="252" height="434" rx="9" fill="#FFFFFF" stroke="#2E629E" stroke-width="1.8"/><text x="152.0" y="208.4875" font-family="Helvetica" font-size="20.5" font-weight="600" fill="#1F3B63" text-anchor="middle">THREE OPTIONS</text><text x="152.0" y="234.1125" font-family="Helvetica" font-size="20.5" font-weight="600" fill="#1F3B63" text-anchor="middle">for each system,</text><text x="152.0" y="259.7375" font-family="Helvetica" font-size="20.5" font-weight="600" fill="#1F3B63" text-anchor="middle">plus OPTION 0,</text><text x="152.0" y="285.3625" font-family="Helvetica" font-size="20.5" font-weight="600" fill="#1F3B63" text-anchor="middle">do nothing.</text><text x="152.0" y="310.9875" font-family="Helvetica" font-size="20.5" font-weight="600" fill="#1F3B63" text-anchor="middle"></text><text x="152.0" y="336.6125" font-family="Helvetica" font-size="20.5" font-weight="600" fill="#1F3B63" text-anchor="middle">Each is costed</text><text x="152.0" y="362.2375" font-family="Helvetica" font-size="20.5" font-weight="600" fill="#1F3B63" text-anchor="middle">separately, on</text><text x="152.0" y="387.8625" font-family="Helvetica" font-size="20.5" font-weight="600" fill="#1F3B63" text-anchor="middle">the same basis.</text>
<rect x="318" y="74" width="252" height="118" rx="9" fill="#FFFFFF" stroke="#8A9BB0" stroke-width="1.8"/><text x="444.0" y="114.55" font-family="Helvetica" font-size="20.5" font-weight="400" fill="#1A1A1A" text-anchor="middle">Gravity sewers by</text><text x="444.0" y="140.175" font-family="Helvetica" font-size="20.5" font-weight="400" fill="#1A1A1A" text-anchor="middle">diameter AND depth</text><text x="444.0" y="165.8" font-family="Helvetica" font-size="20.5" font-weight="400" fill="#1A1A1A" text-anchor="middle">band</text>
<rect x="610" y="74" width="252" height="118" rx="9" fill="#FFFFFF" stroke="#8A9BB0" stroke-width="1.8"/><text x="736.0" y="101.7375" font-family="Helvetica" font-size="20.5" font-weight="400" fill="#1A1A1A" text-anchor="middle">Manholes, house</text><text x="736.0" y="127.3625" font-family="Helvetica" font-size="20.5" font-weight="400" fill="#1A1A1A" text-anchor="middle">connections,</text><text x="736.0" y="152.9875" font-family="Helvetica" font-size="20.5" font-weight="400" fill="#1A1A1A" text-anchor="middle">force mains, lifting</text><text x="736.0" y="178.6125" font-family="Helvetica" font-size="20.5" font-weight="400" fill="#1A1A1A" text-anchor="middle">stations</text>
<rect x="902" y="74" width="252" height="118" rx="9" fill="#FFFFFF" stroke="#8A9BB0" stroke-width="1.8"/><text x="1028.0" y="114.55" font-family="Helvetica" font-size="20.5" font-weight="400" fill="#1A1A1A" text-anchor="middle">STP per m3/day, TE</text><text x="1028.0" y="140.175" font-family="Helvetica" font-size="20.5" font-weight="400" fill="#1A1A1A" text-anchor="middle">network,</text><text x="1028.0" y="165.8" font-family="Helvetica" font-size="20.5" font-weight="400" fill="#1A1A1A" text-anchor="middle">land, NOCs, diversions</text>
<rect x="1194" y="74" width="252" height="118" rx="9" fill="#EAF1F8" stroke="#2E629E" stroke-width="1.8"/><text x="1320.0" y="127.3625" font-family="Helvetica" font-size="20.5" font-weight="400" fill="#1A1A1A" text-anchor="middle">STEP 1  CAPEX</text><text x="1320.0" y="152.9875" font-family="Helvetica" font-size="20.5" font-weight="400" fill="#1A1A1A" text-anchor="middle">phased over the build</text>
<rect x="318" y="232" width="252" height="118" rx="9" fill="#FFFFFF" stroke="#8A9BB0" stroke-width="1.8"/><text x="444.0" y="285.3625" font-family="Helvetica" font-size="20.5" font-weight="400" fill="#1A1A1A" text-anchor="middle">Energy: pumping, and</text><text x="444.0" y="310.9875" font-family="Helvetica" font-size="20.5" font-weight="400" fill="#1A1A1A" text-anchor="middle">aeration at the plant</text>
<rect x="610" y="232" width="252" height="118" rx="9" fill="#FFFFFF" stroke="#8A9BB0" stroke-width="1.8"/><text x="736.0" y="272.55" font-family="Helvetica" font-size="20.5" font-weight="400" fill="#1A1A1A" text-anchor="middle">Sludge, chemicals,</text><text x="736.0" y="298.175" font-family="Helvetica" font-size="20.5" font-weight="400" fill="#1A1A1A" text-anchor="middle">labour,</text><text x="736.0" y="323.8" font-family="Helvetica" font-size="20.5" font-weight="400" fill="#1A1A1A" text-anchor="middle">jetting and CCTV</text>
<rect x="902" y="232" width="252" height="118" rx="9" fill="#FFFFFF" stroke="#8A9BB0" stroke-width="1.8"/><text x="1028.0" y="272.55" font-family="Helvetica" font-size="20.5" font-weight="400" fill="#1A1A1A" text-anchor="middle">Replacing M and E</text><text x="1028.0" y="298.175" font-family="Helvetica" font-size="20.5" font-weight="400" fill="#1A1A1A" text-anchor="middle">plant</text><text x="1028.0" y="323.8" font-family="Helvetica" font-size="20.5" font-weight="400" fill="#1A1A1A" text-anchor="middle">inside the 25 years</text>
<rect x="1194" y="232" width="252" height="118" rx="9" fill="#EAF1F8" stroke="#2E629E" stroke-width="1.8"/><text x="1320.0" y="285.3625" font-family="Helvetica" font-size="20.5" font-weight="400" fill="#1A1A1A" text-anchor="middle">STEP 2  OPEX</text><text x="1320.0" y="310.9875" font-family="Helvetica" font-size="20.5" font-weight="400" fill="#1A1A1A" text-anchor="middle">built bottom-up</text>
<rect x="318" y="390" width="252" height="118" rx="9" fill="#FFFFFF" stroke="#8A9BB0" stroke-width="1.8"/><text x="444.0" y="430.55" font-family="Helvetica" font-size="20.5" font-weight="400" fill="#1A1A1A" text-anchor="middle">Treated effluent sold,</text><text x="444.0" y="456.175" font-family="Helvetica" font-size="20.5" font-weight="400" fill="#1A1A1A" text-anchor="middle">capped by irrigation</text><text x="444.0" y="481.8" font-family="Helvetica" font-size="20.5" font-weight="400" fill="#1A1A1A" text-anchor="middle">demand</text>
<rect x="610" y="390" width="252" height="118" rx="9" fill="#FFFFFF" stroke="#8A9BB0" stroke-width="1.8"/><text x="736.0" y="417.7375" font-family="Helvetica" font-size="20.5" font-weight="400" fill="#1A1A1A" text-anchor="middle">Sewerage and</text><text x="736.0" y="443.3625" font-family="Helvetica" font-size="20.5" font-weight="400" fill="#1A1A1A" text-anchor="middle">connection</text><text x="736.0" y="468.9875" font-family="Helvetica" font-size="20.5" font-weight="400" fill="#1A1A1A" text-anchor="middle">charges, if NWS levies</text><text x="736.0" y="494.6125" font-family="Helvetica" font-size="20.5" font-weight="400" fill="#1A1A1A" text-anchor="middle">them</text>
<rect x="902" y="390" width="252" height="118" rx="9" fill="#FFFFFF" stroke="#8A9BB0" stroke-width="1.8"/><text x="1028.0" y="417.7375" font-family="Helvetica" font-size="20.5" font-weight="400" fill="#1A1A1A" text-anchor="middle">Avoided cost: tankers,</text><text x="1028.0" y="443.3625" font-family="Helvetica" font-size="20.5" font-weight="400" fill="#1A1A1A" text-anchor="middle">septic</text><text x="1028.0" y="468.9875" font-family="Helvetica" font-size="20.5" font-weight="400" fill="#1A1A1A" text-anchor="middle">emptying, deferring a</text><text x="1028.0" y="494.6125" font-family="Helvetica" font-size="20.5" font-weight="400" fill="#1A1A1A" text-anchor="middle">plant</text>
<rect x="1194" y="390" width="252" height="118" rx="9" fill="#EAF1F8" stroke="#2E629E" stroke-width="1.8"/><text x="1320.0" y="443.3625" font-family="Helvetica" font-size="20.5" font-weight="400" fill="#1A1A1A" text-anchor="middle">STEP 3  Revenue and</text><text x="1320.0" y="468.9875" font-family="Helvetica" font-size="20.5" font-weight="400" fill="#1A1A1A" text-anchor="middle">avoided cost</text>
<rect x="26" y="548" width="1420" height="118" rx="9" fill="#EAF1F8" stroke="#2E629E" stroke-width="1.8"/><text x="736.0" y="601.3625" font-family="Helvetica" font-size="20.5" font-weight="400" fill="#1A1A1A" text-anchor="middle">STEP 4   Discount every flow back to today at 5 % over 25 years:  NET PRESENT VALUE and LIFE-CYCLE COST</text><text x="736.0" y="626.9875" font-family="Helvetica" font-size="20.5" font-weight="400" fill="#1A1A1A" text-anchor="middle">Payback is reported alongside them, but it does not decide.</text>
<rect x="26" y="706" width="252" height="118" rx="9" fill="#FFFFFF" stroke="#8A9BB0" stroke-width="1.8"/><text x="152.0" y="746.55" font-family="Helvetica" font-size="20.5" font-weight="400" fill="#1A1A1A" text-anchor="middle">STEP 5</text><text x="152.0" y="772.175" font-family="Helvetica" font-size="20.5" font-weight="400" fill="#1A1A1A" text-anchor="middle">Score the</text><text x="152.0" y="797.8" font-family="Helvetica" font-size="20.5" font-weight="400" fill="#1A1A1A" text-anchor="middle">seven criteria</text>
<rect x="318" y="706" width="252" height="118" rx="9" fill="#FFFFFF" stroke="#8A9BB0" stroke-width="1.8"/><text x="444.0" y="746.55" font-family="Helvetica" font-size="20.5" font-weight="400" fill="#1A1A1A" text-anchor="middle">STEP 6</text><text x="444.0" y="772.175" font-family="Helvetica" font-size="20.5" font-weight="400" fill="#1A1A1A" text-anchor="middle">Apply the weights</text><text x="444.0" y="797.8" font-family="Helvetica" font-size="20.5" font-weight="400" fill="#1A1A1A" text-anchor="middle">NWS sets</text>
<rect x="610" y="706" width="252" height="118" rx="9" fill="#FFFFFF" stroke="#8A9BB0" stroke-width="1.8"/><text x="736.0" y="733.7375" font-family="Helvetica" font-size="20.5" font-weight="400" fill="#1A1A1A" text-anchor="middle">STEP 7</text><text x="736.0" y="759.3625" font-family="Helvetica" font-size="20.5" font-weight="400" fill="#1A1A1A" text-anchor="middle">Sensitivity: weights,</text><text x="736.0" y="784.9875" font-family="Helvetica" font-size="20.5" font-weight="400" fill="#1A1A1A" text-anchor="middle">discount rate,</text><text x="736.0" y="810.6125" font-family="Helvetica" font-size="20.5" font-weight="400" fill="#1A1A1A" text-anchor="middle">criteria</text>
<rect x="902" y="706" width="252" height="118" rx="9" fill="#FFFFFF" stroke="#8A9BB0" stroke-width="1.8"/><text x="1028.0" y="733.7375" font-family="Helvetica" font-size="20.5" font-weight="400" fill="#1A1A1A" text-anchor="middle">STEP 8</text><text x="1028.0" y="759.3625" font-family="Helvetica" font-size="20.5" font-weight="400" fill="#1A1A1A" text-anchor="middle">Within 10 % on cost,</text><text x="1028.0" y="784.9875" font-family="Helvetica" font-size="20.5" font-weight="400" fill="#1A1A1A" text-anchor="middle">the greener option</text><text x="1028.0" y="810.6125" font-family="Helvetica" font-size="20.5" font-weight="400" fill="#1A1A1A" text-anchor="middle">wins</text>
<rect x="1194" y="706" width="252" height="118" rx="9" fill="#1F3B63" stroke="#1F3B63" stroke-width="1.8"/><text x="1320.0" y="746.55" font-family="Helvetica" font-size="20.5" font-weight="600" fill="#FFFFFF" text-anchor="middle">STEP 9</text><text x="1320.0" y="772.175" font-family="Helvetica" font-size="20.5" font-weight="600" fill="#FFFFFF" text-anchor="middle">RECOMMENDED OPTION,</text><text x="1320.0" y="797.8" font-family="Helvetica" font-size="20.5" font-weight="600" fill="#FFFFFF" text-anchor="middle">one for each system</text>
</svg>