<svg xmlns="http://www.w3.org/2000/svg" width="930" height="656" viewBox="0 0 930 656" font-family="Helvetica">
<rect width="930" height="656" fill="#FFFFFF"/>
<text x="26" y="52" font-family="Helvetica" font-size="27" font-weight="600" fill="#1F3B63">Building and proving the hydraulic model</text>
<path d="M157.0,186.0 L157.0,204.0 L465.0,204.0 L465.0,211.0" fill="none" stroke="#8A9BB0" stroke-width="1.8" stroke-linejoin="round"/><polygon points="465.0,222.0 460.4,211.0 469.6,211.0" fill="#8A9BB0"/>
<path d="M773.0,186.0 L773.0,204.0 L465.0,204.0 L465.0,211.0" fill="none" stroke="#8A9BB0" stroke-width="1.8" stroke-linejoin="round"/><polygon points="465.0,222.0 460.4,211.0 469.6,211.0" fill="#8A9BB0"/>
<path d="M465.0,334.0 L465.0,359.0" fill="none" stroke="#8A9BB0" stroke-width="1.8" stroke-linejoin="round"/><polygon points="465.0,370.0 460.4,359.0 469.6,359.0" fill="#8A9BB0"/>
<path d="M465.0,482.0 L465.0,500.0 L157.0,500.0 L157.0,507.0" fill="none" stroke="#8A9BB0" stroke-width="1.8" stroke-linejoin="round"/><polygon points="157.0,518.0 152.4,507.0 161.6,507.0" fill="#8A9BB0"/>
<path d="M465.0,482.0 L465.0,500.0 L773.0,500.0 L773.0,507.0" fill="none" stroke="#8A9BB0" stroke-width="1.8" stroke-linejoin="round"/><polygon points="773.0,518.0 768.4,507.0 777.6,507.0" fill="#8A9BB0"/>
<rect x="26" y="74" width="262" height="112" rx="9" fill="#FFFFFF" stroke="#2E629E" stroke-width="1.8"/><text x="157.0" y="111.55" font-family="Helvetica" font-size="20.5" font-weight="600" fill="#1F3B63" text-anchor="middle">Network geometry</text><text x="157.0" y="137.175" font-family="Helvetica" font-size="20.5" font-weight="600" fill="#1F3B63" text-anchor="middle">levels, diameters,</text><text x="157.0" y="162.8" font-family="Helvetica" font-size="20.5" font-weight="600" fill="#1F3B63" text-anchor="middle">gradients</text>
<rect x="642" y="74" width="262" height="112" rx="9" fill="#FFFFFF" stroke="#2E629E" stroke-width="1.8"/><text x="773.0" y="124.3625" font-family="Helvetica" font-size="20.5" font-weight="600" fill="#1F3B63" text-anchor="middle">Loads at manholes</text><text x="773.0" y="149.9875" font-family="Helvetica" font-size="20.5" font-weight="600" fill="#1F3B63" text-anchor="middle">from the plot layer</text>
<rect x="334" y="222" width="262" height="112" rx="9" fill="#FFFFFF" stroke="#8A9BB0" stroke-width="1.8"/><text x="465.0" y="285.175" font-family="Helvetica" font-size="20.5" font-weight="400" fill="#1A1A1A" text-anchor="middle">Build in SewerGEMS</text>
<rect x="334" y="370" width="262" height="112" rx="9" fill="#FFFFFF" stroke="#8A9BB0" stroke-width="1.8"/><text x="465.0" y="420.3625" font-family="Helvetica" font-size="20.5" font-weight="400" fill="#1A1A1A" text-anchor="middle">Run design year and</text><text x="465.0" y="445.9875" font-family="Helvetica" font-size="20.5" font-weight="400" fill="#1A1A1A" text-anchor="middle">early year scenarios</text>
<rect x="26" y="518" width="262" height="112" rx="9" fill="#FFFFFF" stroke="#8A9BB0" stroke-width="1.8"/><text x="157.0" y="555.55" font-family="Helvetica" font-size="20.5" font-weight="400" fill="#1A1A1A" text-anchor="middle">Calibrate against</text><text x="157.0" y="581.175" font-family="Helvetica" font-size="20.5" font-weight="400" fill="#1A1A1A" text-anchor="middle">measured flow where it</text><text x="157.0" y="606.8" font-family="Helvetica" font-size="20.5" font-weight="400" fill="#1A1A1A" text-anchor="middle">exists</text>
<rect x="642" y="518" width="262" height="112" rx="9" fill="#1F3B63" stroke="#1F3B63" stroke-width="1.8"/><text x="773.0" y="555.55" font-family="Helvetica" font-size="20.5" font-weight="600" fill="#FFFFFF" text-anchor="middle">Check velocity, d/D,</text><text x="773.0" y="581.175" font-family="Helvetica" font-size="20.5" font-weight="600" fill="#FFFFFF" text-anchor="middle">surcharge, pump run</text><text x="773.0" y="606.8" font-family="Helvetica" font-size="20.5" font-weight="600" fill="#FFFFFF" text-anchor="middle">time</text>
<rect x="334" y="518" width="262" height="112" rx="6" fill="#FFF4E5" stroke="#D9A441" stroke-width="1.4"/>
<text x="465.0" y="545.7875" font-family="Helvetica" font-size="18.5" font-weight="400" fill="#7A5200" text-anchor="middle">Model files are a contract</text><text x="465.0" y="568.9125" font-family="Helvetica" font-size="18.5" font-weight="400" fill="#7A5200" text-anchor="middle">deliverable in native</text><text x="465.0" y="592.0375" font-family="Helvetica" font-size="18.5" font-weight="400" fill="#7A5200" text-anchor="middle">editable format, updated</text><text x="465.0" y="615.1625" font-family="Helvetica" font-size="18.5" font-weight="400" fill="#7A5200" text-anchor="middle">after construction</text>
</svg>