<svg xmlns="http://www.w3.org/2000/svg" width="924" height="656" viewBox="0 0 924 656" font-family="Helvetica">
<rect width="924" height="656" fill="#FFFFFF"/>
<text x="26" y="52" font-family="Helvetica" font-size="27" font-weight="600" fill="#1F3B63">Assessing the existing network</text>
<path d="M156.0,186.0 L156.0,204.0 L462.0,204.0 L462.0,211.0" fill="none" stroke="#8A9BB0" stroke-width="1.8" stroke-linejoin="round"/><polygon points="462.0,222.0 457.4,211.0 466.6,211.0" fill="#8A9BB0"/>
<path d="M768.0,186.0 L768.0,204.0 L462.0,204.0 L462.0,211.0" fill="none" stroke="#8A9BB0" stroke-width="1.8" stroke-linejoin="round"/><polygon points="462.0,222.0 457.4,211.0 466.6,211.0" fill="#8A9BB0"/>
<path d="M462.0,334.0 L462.0,359.0" fill="none" stroke="#8A9BB0" stroke-width="1.8" stroke-linejoin="round"/><polygon points="462.0,370.0 457.4,359.0 466.6,359.0" fill="#8A9BB0"/>
<path d="M462.0,482.0 L462.0,500.0 L156.0,500.0 L156.0,507.0" fill="none" stroke="#8A9BB0" stroke-width="1.8" stroke-linejoin="round"/><polygon points="156.0,518.0 151.4,507.0 160.6,507.0" fill="#8A9BB0"/>
<path d="M462.0,482.0 L462.0,500.0 L768.0,500.0 L768.0,507.0" fill="none" stroke="#8A9BB0" stroke-width="1.8" stroke-linejoin="round"/><polygon points="768.0,518.0 763.4,507.0 772.6,507.0" fill="#8A9BB0"/>
<rect x="26" y="74" width="260" height="112" rx="9" fill="#FFFFFF" stroke="#2E629E" stroke-width="1.8"/><text x="156.0" y="111.55" font-family="Helvetica" font-size="20.5" font-weight="600" fill="#1F3B63" text-anchor="middle">NWS asset GIS</text><text x="156.0" y="137.175" font-family="Helvetica" font-size="20.5" font-weight="600" fill="#1F3B63" text-anchor="middle">declared inaccurate by</text><text x="156.0" y="162.8" font-family="Helvetica" font-size="20.5" font-weight="600" fill="#1F3B63" text-anchor="middle">NWS</text>
<rect x="638" y="74" width="260" height="112" rx="9" fill="#FFFFFF" stroke="#2E629E" stroke-width="1.8"/><text x="768.0" y="111.55" font-family="Helvetica" font-size="20.5" font-weight="600" fill="#1F3B63" text-anchor="middle">Survey and CCTV</text><text x="768.0" y="137.175" font-family="Helvetica" font-size="20.5" font-weight="600" fill="#1F3B63" text-anchor="middle">levels, sizes,</text><text x="768.0" y="162.8" font-family="Helvetica" font-size="20.5" font-weight="600" fill="#1F3B63" text-anchor="middle">condition</text>
<rect x="332" y="222" width="260" height="112" rx="9" fill="#FFFFFF" stroke="#8A9BB0" stroke-width="1.8"/><text x="462.0" y="272.3625" font-family="Helvetica" font-size="20.5" font-weight="400" fill="#1A1A1A" text-anchor="middle">As-built and GIS</text><text x="462.0" y="297.9875" font-family="Helvetica" font-size="20.5" font-weight="400" fill="#1A1A1A" text-anchor="middle">to NWS specification</text>
<rect x="332" y="370" width="260" height="112" rx="9" fill="#FFFFFF" stroke="#8A9BB0" stroke-width="1.8"/><text x="462.0" y="420.3625" font-family="Helvetica" font-size="20.5" font-weight="400" fill="#1A1A1A" text-anchor="middle">Hydraulic assessment</text><text x="462.0" y="445.9875" font-family="Helvetica" font-size="20.5" font-weight="400" fill="#1A1A1A" text-anchor="middle">against future flows</text>
<rect x="26" y="518" width="260" height="112" rx="9" fill="#FFFFFF" stroke="#8A9BB0" stroke-width="1.8"/><text x="156.0" y="568.3625" font-family="Helvetica" font-size="20.5" font-weight="400" fill="#1A1A1A" text-anchor="middle">Adequate</text><text x="156.0" y="593.9875" font-family="Helvetica" font-size="20.5" font-weight="400" fill="#1A1A1A" text-anchor="middle">retain and integrate</text>
<rect x="638" y="518" width="260" height="112" rx="9" fill="#1F3B63" stroke="#1F3B63" stroke-width="1.8"/><text x="768.0" y="555.55" font-family="Helvetica" font-size="20.5" font-weight="600" fill="#FFFFFF" text-anchor="middle">Inadequate</text><text x="768.0" y="581.175" font-family="Helvetica" font-size="20.5" font-weight="600" fill="#FFFFFF" text-anchor="middle">upgrade, rehabilitate</text><text x="768.0" y="606.8" font-family="Helvetica" font-size="20.5" font-weight="600" fill="#FFFFFF" text-anchor="middle">or replace</text>
<rect x="332" y="518" width="260" height="112" rx="6" fill="#FFF4E5" stroke="#D9A441" stroke-width="1.4"/>
<text x="462.0" y="545.7875" font-family="Helvetica" font-size="18.5" font-weight="400" fill="#7A5200" text-anchor="middle">Rehabilitation is a</text><text x="462.0" y="568.9125" font-family="Helvetica" font-size="18.5" font-weight="400" fill="#7A5200" text-anchor="middle">separately priced concept</text><text x="462.0" y="592.0375" font-family="Helvetica" font-size="18.5" font-weight="400" fill="#7A5200" text-anchor="middle">deliverable, not an</text><text x="462.0" y="615.1625" font-family="Helvetica" font-size="18.5" font-weight="400" fill="#7A5200" text-anchor="middle">afterthought</text>
</svg>