<svg xmlns="http://www.w3.org/2000/svg" width="930" height="656" viewBox="0 0 930 656" font-family="Helvetica">
<rect width="930" height="656" fill="#FFFFFF"/>
<text x="26" y="52" font-family="Helvetica" font-size="27" font-weight="600" fill="#1F3B63">Options appraisal and the recommendation</text>
<path d="M157.0,186.0 L157.0,204.0 L465.0,204.0 L465.0,211.0" fill="none" stroke="#8A9BB0" stroke-width="1.8" stroke-linejoin="round"/><polygon points="465.0,222.0 460.4,211.0 469.6,211.0" fill="#8A9BB0"/>
<path d="M465.0,186.0 L465.0,211.0" fill="none" stroke="#8A9BB0" stroke-width="1.8" stroke-linejoin="round"/><polygon points="465.0,222.0 460.4,211.0 469.6,211.0" fill="#8A9BB0"/>
<path d="M773.0,186.0 L773.0,204.0 L465.0,204.0 L465.0,211.0" fill="none" stroke="#8A9BB0" stroke-width="1.8" stroke-linejoin="round"/><polygon points="465.0,222.0 460.4,211.0 469.6,211.0" fill="#8A9BB0"/>
<path d="M465.0,334.0 L465.0,352.0 L157.0,352.0 L157.0,359.0" fill="none" stroke="#8A9BB0" stroke-width="1.8" stroke-linejoin="round"/><polygon points="157.0,370.0 152.4,359.0 161.6,359.0" fill="#8A9BB0"/>
<path d="M465.0,334.0 L465.0,352.0 L773.0,352.0 L773.0,359.0" fill="none" stroke="#8A9BB0" stroke-width="1.8" stroke-linejoin="round"/><polygon points="773.0,370.0 768.4,359.0 777.6,359.0" fill="#8A9BB0"/>
<path d="M157.0,482.0 L157.0,500.0 L465.0,500.0 L465.0,507.0" fill="none" stroke="#8A9BB0" stroke-width="1.8" stroke-linejoin="round"/><polygon points="465.0,518.0 460.4,507.0 469.6,507.0" fill="#8A9BB0"/>
<path d="M773.0,482.0 L773.0,500.0 L465.0,500.0 L465.0,507.0" fill="none" stroke="#8A9BB0" stroke-width="1.8" stroke-linejoin="round"/><polygon points="465.0,518.0 460.4,507.0 469.6,507.0" fill="#8A9BB0"/>
<rect x="26" y="74" width="262" height="112" rx="9" fill="#FFFFFF" stroke="#2E629E" stroke-width="1.8"/><text x="157.0" y="124.3625" font-family="Helvetica" font-size="20.5" font-weight="600" fill="#1F3B63" text-anchor="middle">Nature-based</text><text x="157.0" y="149.9875" font-family="Helvetica" font-size="20.5" font-weight="600" fill="#1F3B63" text-anchor="middle">option</text>
<rect x="334" y="74" width="262" height="112" rx="9" fill="#FFFFFF" stroke="#2E629E" stroke-width="1.8"/><text x="465.0" y="124.3625" font-family="Helvetica" font-size="20.5" font-weight="600" fill="#1F3B63" text-anchor="middle">International</text><text x="465.0" y="149.9875" font-family="Helvetica" font-size="20.5" font-weight="600" fill="#1F3B63" text-anchor="middle">best in class</text>
<rect x="642" y="74" width="262" height="112" rx="9" fill="#FFFFFF" stroke="#2E629E" stroke-width="1.8"/><text x="773.0" y="124.3625" font-family="Helvetica" font-size="20.5" font-weight="600" fill="#1F3B63" text-anchor="middle">Standard Omani</text><text x="773.0" y="149.9875" font-family="Helvetica" font-size="20.5" font-weight="600" fill="#1F3B63" text-anchor="middle">practice</text>
<rect x="334" y="222" width="262" height="112" rx="9" fill="#FFFFFF" stroke="#8A9BB0" stroke-width="1.8"/><text x="465.0" y="259.55" font-family="Helvetica" font-size="20.5" font-weight="400" fill="#1A1A1A" text-anchor="middle">Equivalent function,</text><text x="465.0" y="285.175" font-family="Helvetica" font-size="20.5" font-weight="400" fill="#1A1A1A" text-anchor="middle">reliability and</text><text x="465.0" y="310.8" font-family="Helvetica" font-size="20.5" font-weight="400" fill="#1A1A1A" text-anchor="middle">redundancy</text>
<rect x="26" y="370" width="262" height="112" rx="9" fill="#FFFFFF" stroke="#8A9BB0" stroke-width="1.8"/><text x="157.0" y="407.55" font-family="Helvetica" font-size="20.5" font-weight="400" fill="#1A1A1A" text-anchor="middle">CAPEX, OPEX</text><text x="157.0" y="433.175" font-family="Helvetica" font-size="20.5" font-weight="400" fill="#1A1A1A" text-anchor="middle">life cycle cost at 5 %</text><text x="157.0" y="458.8" font-family="Helvetica" font-size="20.5" font-weight="400" fill="#1A1A1A" text-anchor="middle">over 25 years</text>
<rect x="642" y="370" width="262" height="112" rx="9" fill="#FFFFFF" stroke="#8A9BB0" stroke-width="1.8"/><text x="773.0" y="407.55" font-family="Helvetica" font-size="20.5" font-weight="400" fill="#1A1A1A" text-anchor="middle">Carbon, circular</text><text x="773.0" y="433.175" font-family="Helvetica" font-size="20.5" font-weight="400" fill="#1A1A1A" text-anchor="middle">economy</text><text x="773.0" y="458.8" font-family="Helvetica" font-size="20.5" font-weight="400" fill="#1A1A1A" text-anchor="middle">in-country value</text>
<rect x="334" y="518" width="262" height="112" rx="9" fill="#1F3B63" stroke="#1F3B63" stroke-width="1.8"/><text x="465.0" y="542.7375" font-family="Helvetica" font-size="20.5" font-weight="600" fill="#FFFFFF" text-anchor="middle">Weighted appraisal, NWS</text><text x="465.0" y="568.3625" font-family="Helvetica" font-size="20.5" font-weight="600" fill="#FFFFFF" text-anchor="middle">sets the weights</text><text x="465.0" y="593.9875" font-family="Helvetica" font-size="20.5" font-weight="600" fill="#FFFFFF" text-anchor="middle">Within 10 % on cost,</text><text x="465.0" y="619.6125" font-family="Helvetica" font-size="20.5" font-weight="600" fill="#FFFFFF" text-anchor="middle">the greener option wins</text>
</svg>