<svg xmlns="http://www.w3.org/2000/svg" width="898" height="720" viewBox="0 0 898 720" font-family="Helvetica">
<rect width="898" height="720" fill="#FFFFFF"/>
<text x="26" y="52" font-family="Helvetica" font-size="27" font-weight="600" fill="#1F3B63">Derivation of the design flow</text>
<path d="M280.0,124.0 L311.0,124.0" fill="none" stroke="#8A9BB0" stroke-width="1.8" stroke-linejoin="round"/><polygon points="322.0,124.0 311.0,128.6 311.0,119.4" fill="#8A9BB0"/>
<path d="M576.0,124.0 L607.0,124.0" fill="none" stroke="#8A9BB0" stroke-width="1.8" stroke-linejoin="round"/><polygon points="618.0,124.0 607.0,128.6 607.0,119.4" fill="#8A9BB0"/>
<path d="M745.0,174.0 L745.0,193.0" fill="none" stroke="#8A9BB0" stroke-width="1.8" stroke-linejoin="round"/><polygon points="745.0,204.0 740.4,193.0 749.6,193.0" fill="#8A9BB0"/>
<path d="M745.0,304.0 L745.0,323.0" fill="none" stroke="#8A9BB0" stroke-width="1.8" stroke-linejoin="round"/><polygon points="745.0,334.0 740.4,323.0 749.6,323.0" fill="#8A9BB0"/>
<path d="M618.0,384.0 L587.0,384.0" fill="none" stroke="#8A9BB0" stroke-width="1.8" stroke-linejoin="round"/><polygon points="576.0,384.0 587.0,379.4 587.0,388.6" fill="#8A9BB0"/>
<path d="M322.0,384.0 L291.0,384.0" fill="none" stroke="#8A9BB0" stroke-width="1.8" stroke-linejoin="round"/><polygon points="280.0,384.0 291.0,379.4 291.0,388.6" fill="#8A9BB0"/>
<path d="M153.0,434.0 L153.0,453.0" fill="none" stroke="#8A9BB0" stroke-width="1.8" stroke-linejoin="round"/><polygon points="153.0,464.0 148.4,453.0 157.6,453.0" fill="#8A9BB0"/>
<path d="M153.0,564.0 L153.0,579.0 L449.0,579.0 L449.0,583.0" fill="none" stroke="#8A9BB0" stroke-width="1.8" stroke-linejoin="round"/><polygon points="449.0,594.0 444.4,583.0 453.6,583.0" fill="#8A9BB0"/>
<path d="M745.0,564.0 L745.0,579.0 L449.0,579.0 L449.0,583.0" fill="none" stroke="#8A9BB0" stroke-width="1.8" stroke-linejoin="round"/><polygon points="449.0,594.0 444.4,583.0 453.6,583.0" fill="#8A9BB0"/>
<rect x="26" y="74" width="254" height="100" rx="9" fill="#FFFFFF" stroke="#2E629E" stroke-width="1.8"/><text x="153.0" y="118.3625" font-family="Helvetica" font-size="20.5" font-weight="600" fill="#1F3B63" text-anchor="middle">Plots and counted</text><text x="153.0" y="143.9875" font-family="Helvetica" font-size="20.5" font-weight="600" fill="#1F3B63" text-anchor="middle">properties</text>
<rect x="322" y="74" width="254" height="100" rx="9" fill="#FFFFFF" stroke="#8A9BB0" stroke-width="1.8"/><text x="449.0" y="131.175" font-family="Helvetica" font-size="20.5" font-weight="400" fill="#1A1A1A" text-anchor="middle">Population</text>
<rect x="618" y="74" width="254" height="100" rx="9" fill="#FFFFFF" stroke="#8A9BB0" stroke-width="1.8"/><text x="745.0" y="105.55" font-family="Helvetica" font-size="20.5" font-weight="400" fill="#1A1A1A" text-anchor="middle">Water demand</text><text x="745.0" y="131.175" font-family="Helvetica" font-size="20.5" font-weight="400" fill="#1A1A1A" text-anchor="middle">domestic, non-domestic</text><text x="745.0" y="156.8" font-family="Helvetica" font-size="20.5" font-weight="400" fill="#1A1A1A" text-anchor="middle">and governmental</text>
<rect x="618" y="204" width="254" height="100" rx="9" fill="#FFFFFF" stroke="#8A9BB0" stroke-width="1.8"/><text x="745.0" y="248.3625" font-family="Helvetica" font-size="20.5" font-weight="400" fill="#1A1A1A" text-anchor="middle">Return rates</text><text x="745.0" y="273.9875" font-family="Helvetica" font-size="20.5" font-weight="400" fill="#1A1A1A" text-anchor="middle">85 % and 54 %</text>
<rect x="618" y="334" width="254" height="100" rx="9" fill="#FFFFFF" stroke="#8A9BB0" stroke-width="1.8"/><text x="745.0" y="391.175" font-family="Helvetica" font-size="20.5" font-weight="400" fill="#1A1A1A" text-anchor="middle">Wastewater generated</text>
<rect x="322" y="334" width="254" height="100" rx="9" fill="#FFFFFF" stroke="#8A9BB0" stroke-width="1.8"/><text x="449.0" y="378.3625" font-family="Helvetica" font-size="20.5" font-weight="400" fill="#1A1A1A" text-anchor="middle">Connection ratio</text><text x="449.0" y="403.9875" font-family="Helvetica" font-size="20.5" font-weight="400" fill="#1A1A1A" text-anchor="middle">for the design year</text>
<rect x="26" y="334" width="254" height="100" rx="9" fill="#FFFFFF" stroke="#8A9BB0" stroke-width="1.8"/><text x="153.0" y="391.175" font-family="Helvetica" font-size="20.5" font-weight="400" fill="#1A1A1A" text-anchor="middle">Peak factor</text>
<rect x="26" y="464" width="254" height="100" rx="9" fill="#FFFFFF" stroke="#8A9BB0" stroke-width="1.8"/><text x="153.0" y="521.175" font-family="Helvetica" font-size="20.5" font-weight="400" fill="#1A1A1A" text-anchor="middle">Infiltration allowance</text>
<rect x="322" y="594" width="254" height="100" rx="9" fill="#1F3B63" stroke="#1F3B63" stroke-width="1.8"/><text x="449.0" y="651.175" font-family="Helvetica" font-size="20.5" font-weight="600" fill="#FFFFFF" text-anchor="middle">DESIGN FLOW</text>
<rect x="618" y="464" width="254" height="100" rx="9" fill="#EAF1F8" stroke="#2E629E" stroke-width="1.8"/><text x="745.0" y="521.175" font-family="Helvetica" font-size="20.5" font-weight="400" fill="#1A1A1A" text-anchor="middle">Tanker deliveries</text>
</svg>