<svg xmlns="http://www.w3.org/2000/svg" width="898" height="720" viewBox="0 0 898 720" font-family="Helvetica">
<rect width="898" height="720" fill="#FFFFFF"/>
<text x="26" y="52" font-family="Helvetica" font-size="27" font-weight="600" fill="#1F3B63">Network design approach</text>
<path d="M449.0,174.0 L449.0,193.0" fill="none" stroke="#8A9BB0" stroke-width="1.8" stroke-linejoin="round"/><polygon points="449.0,204.0 444.4,193.0 453.6,193.0" fill="#8A9BB0"/>
<path d="M449.0,304.0 L449.0,323.0" fill="none" stroke="#8A9BB0" stroke-width="1.8" stroke-linejoin="round"/><polygon points="449.0,334.0 444.4,323.0 453.6,323.0" fill="#8A9BB0"/>
<path d="M449.0,434.0 L449.0,449.0 L153.0,449.0 L153.0,453.0" fill="none" stroke="#8A9BB0" stroke-width="1.8" stroke-linejoin="round"/><polygon points="153.0,464.0 148.4,453.0 157.6,453.0" fill="#8A9BB0"/>
<path d="M449.0,434.0 L449.0,449.0 L745.0,449.0 L745.0,453.0" fill="none" stroke="#8A9BB0" stroke-width="1.8" stroke-linejoin="round"/><polygon points="745.0,464.0 740.4,453.0 749.6,453.0" fill="#8A9BB0"/>
<path d="M153.0,564.0 L153.0,583.0" fill="none" stroke="#8A9BB0" stroke-width="1.8" stroke-linejoin="round"/><polygon points="153.0,594.0 148.4,583.0 157.6,583.0" fill="#8A9BB0"/><rect x="131.9" y="566.0" width="42.2" height="26" rx="4" fill="#FFFFFF" opacity="0.95"/><text x="153.0" y="585.0" font-family="Helvetica" font-size="17" fill="#5A5A5A" text-anchor="middle">yes</text>
<path d="M745.0,564.0 L745.0,583.0" fill="none" stroke="#8A9BB0" stroke-width="1.8" stroke-linejoin="round"/><polygon points="745.0,594.0 740.4,583.0 749.6,583.0" fill="#8A9BB0"/>
<path d="M280.0,644.0 L607.0,644.0" fill="none" stroke="#8A9BB0" stroke-width="1.8" stroke-linejoin="round"/><polygon points="618.0,644.0 607.0,648.6 607.0,639.4" fill="#8A9BB0"/>
<rect x="322" y="74" width="254" height="100" rx="9" fill="#FFFFFF" stroke="#2E629E" stroke-width="1.8"/><text x="449.0" y="118.3625" font-family="Helvetica" font-size="20.5" font-weight="600" fill="#1F3B63" text-anchor="middle">Design flow at each</text><text x="449.0" y="143.9875" font-family="Helvetica" font-size="20.5" font-weight="600" fill="#1F3B63" text-anchor="middle">point</text>
<rect x="322" y="204" width="254" height="100" rx="9" fill="#FFFFFF" stroke="#8A9BB0" stroke-width="1.8"/><text x="449.0" y="235.55" font-family="Helvetica" font-size="20.5" font-weight="400" fill="#1A1A1A" text-anchor="middle">Available corridors</text><text x="449.0" y="261.175" font-family="Helvetica" font-size="20.5" font-weight="400" fill="#1A1A1A" text-anchor="middle">dual carriageways</text><text x="449.0" y="286.8" font-family="Helvetica" font-size="20.5" font-weight="400" fill="#1A1A1A" text-anchor="middle">excluded</text>
<rect x="322" y="334" width="254" height="100" rx="9" fill="#FFFFFF" stroke="#8A9BB0" stroke-width="1.8"/><text x="449.0" y="365.55" font-family="Helvetica" font-size="20.5" font-weight="400" fill="#1A1A1A" text-anchor="middle">Gravity layout</text><text x="449.0" y="391.175" font-family="Helvetica" font-size="20.5" font-weight="400" fill="#1A1A1A" text-anchor="middle">laterals, sub-mains,</text><text x="449.0" y="416.8" font-family="Helvetica" font-size="20.5" font-weight="400" fill="#1A1A1A" text-anchor="middle">trunk</text>
<rect x="26" y="464" width="254" height="100" rx="9" fill="#EAF1F8" stroke="#2E629E" stroke-width="1.8"/><text x="153.0" y="508.3625" font-family="Helvetica" font-size="20.5" font-weight="400" fill="#1A1A1A" text-anchor="middle">Excavation cost</text><text x="153.0" y="533.9875" font-family="Helvetica" font-size="20.5" font-weight="400" fill="#1A1A1A" text-anchor="middle">prohibitive?</text>
<rect x="26" y="594" width="254" height="100" rx="9" fill="#FFFFFF" stroke="#8A9BB0" stroke-width="1.8"/><text x="153.0" y="638.3625" font-family="Helvetica" font-size="20.5" font-weight="400" fill="#1A1A1A" text-anchor="middle">Lifting station</text><text x="153.0" y="663.9875" font-family="Helvetica" font-size="20.5" font-weight="400" fill="#1A1A1A" text-anchor="middle">and force main</text>
<rect x="618" y="464" width="254" height="100" rx="9" fill="#FFFFFF" stroke="#8A9BB0" stroke-width="1.8"/><text x="745.0" y="508.3625" font-family="Helvetica" font-size="20.5" font-weight="400" fill="#1A1A1A" text-anchor="middle">Check velocity, depth</text><text x="745.0" y="533.9875" font-family="Helvetica" font-size="20.5" font-weight="400" fill="#1A1A1A" text-anchor="middle">of flow and cover</text>
<rect x="618" y="594" width="254" height="100" rx="9" fill="#1F3B63" stroke="#1F3B63" stroke-width="1.8"/><text x="745.0" y="638.3625" font-family="Helvetica" font-size="20.5" font-weight="600" fill="#FFFFFF" text-anchor="middle">Outfall to the</text><text x="745.0" y="663.9875" font-family="Helvetica" font-size="20.5" font-weight="600" fill="#FFFFFF" text-anchor="middle">treatment plant</text>
</svg>